<svg version="1.1" viewBox="0 0 90.557 112.28" xmlns="http://www.w3.org/2000/svg">
  <path d="m45.275 106.43 39.441-39.439-39.441-39.446-39.439 39.446zm40.019-39.439s-4.4106 7.9134-18.032 21.547c-13.823 13.806-21.988 18.452-21.988 18.452s-7.909-4.3975-21.538-18.045c-13.826-13.81-18.469-21.955-18.469-21.955s4.4236-7.9145 18.051-21.544c13.817-13.805 21.955-18.445 21.955-18.445s7.9308 4.3834 21.552 18.023c13.81 13.81 18.467 21.966 18.467 21.966m-40.019 39.439 39.441-39.439-39.441-39.446-39.439 39.446zm40.019-39.439s-4.4106 7.9134-18.032 21.547c-13.823 13.806-21.988 18.452-21.988 18.452s-7.909-4.3975-21.538-18.045c-13.826-13.81-18.469-21.955-18.469-21.955s4.4236-7.9145 18.051-21.544c13.817-13.805 21.955-18.445 21.955-18.445s7.9308 4.3834 21.552 18.023c13.81 13.81 18.467 21.966 18.467 21.966m-3.8377-0.56314h-3.6028v-3.6246zm-7.6209-7.6177v7.6177h-3.9888v-11.625zm-7.983-7.9928v15.61h-3.9942v-19.611zm-7.9971-7.996v23.606h-3.9899v-27.597zm-7.996-7.9949v31.601h-3.9942v-35.589zm-40.739 32.742h3.6289v3.6354zm7.621 7.6231v-7.6231h4.0029v11.611zm7.9841 7.996v-15.619h4.0083v19.611zm7.9982 7.9993v-23.618h3.9964v27.605zm7.9797 7.9808v-31.599h4.0105v35.587zm5.1618-31.599h7.9982v9.9518h-7.9982zm35.591 0-27.591 27.612-8.0004 7.9754v-21.641h8.0004v13.666l4.0051-4.0192v-9.6463h9.6398l4.0051-3.9942h-13.645v-9.9518zm-72.336-1.1404 23.603-23.625v9.6768h-9.6485l-3.9877 3.9996h13.636v9.9486zm27.6-27.619 7.9938-7.9699v21.641h-7.9938zm7.9938 27.619h-7.9949v-9.9486h7.9949zm42.59 0.58163c0-0.91104 0.72404-1.6199 1.622-1.6199 0.88821 0 1.6351 0.70882 1.6351 1.6199 0 0.8882-0.74687 1.6286-1.6351 1.6286-0.89799 0-1.622-0.74035-1.622-1.6286m-87.3 0c0-0.91104 0.73926-1.6199 1.6264-1.6199 0.90342 0 1.6329 0.70882 1.6329 1.6199 0 0.8882-0.72948 1.6286-1.6329 1.6286-0.88712 0-1.6264-0.74035-1.6264-1.6286m43.659 43.635c0-0.88712 0.73383-1.6155 1.6264-1.6155 0.90451 0 1.6199 0.7284 1.6199 1.6155 0 0.91538-0.71535 1.6307-1.6199 1.6307-0.89255 0-1.6264-0.71535-1.6264-1.6307m-8.407-101.02c-0.48813-0.14243-0.98279-0.22396-1.4948-0.22396-2.2461 0-4.0344 1.3622-4.0344 3.0125 0 0.78493 0.40333 1.5046 1.0404 2.0558l-1.771 1.7601c-1.1122-0.99258-1.7851-2.3341-1.7851-3.8007 0-3.068 2.9212-5.539 6.5501-5.539 0.92191 0 1.8264 0.16416 2.6418 0.48052 1.1806-1.3687 3.1082-2.2515 5.2618-2.2515 1.3329 0 2.5776 0.32723 3.6094 0.91321 1.0469-0.58598 2.2993-0.91321 3.618-0.91321 2.1656 0 4.0812 0.88277 5.2618 2.2515 0.81319-0.31636 1.7134-0.48052 2.6646-0.48052 3.6094 0 6.5425 2.4711 6.5425 5.539 0 1.4666-0.70556 2.8081-1.8025 3.8007l-1.7612-1.7601c0.64142-0.55118 1.0426-1.2709 1.0426-2.0558 0-1.6503-1.8047-3.0125-4.0214-3.0125-0.53488 0-1.0252 0.0815-1.5057 0.22396 0.07501 0.33701 0.10872 0.6762 0.10872 1.0295 0 1.0948-0.36528 2.1265-1.023 2.9973l-1.8058-1.8134c0.21961-0.37833 0.31419-0.76862 0.31419-1.1839 0-1.6862-1.7916-3.0288-4.0149-3.0288-0.84907 0-1.6514 0.21091-2.3037 0.54901v3.6344h-2.52v-3.568c-0.65882-0.39138-1.5014-0.61533-2.4146-0.61533-2.208 0-4.0094 1.3426-4.0094 3.0288 0 0.41529 0.11741 0.80558 0.31636 1.1839l-1.809 1.8134c-0.65556-0.87081-1.0121-1.9025-1.0121-2.9973 0-0.35333 0.03153-0.69252 0.11632-1.0295m-2.2482 13.247 1.4035 2.1156c3.1723-1.4677 6.9393-2.4461 10.863-2.4461 3.9725 0 7.7188 0.97845 10.891 2.4461l1.3992-2.1156c-3.58-1.7199-7.7677-2.7298-12.246-2.7298-4.4671 0-8.6972 0.9904-12.311 2.7298m10.595-21.166c0-0.94691 0.74905-1.7079 1.7025-1.7079 0.93278 0 1.6992 0.76101 1.6992 1.7079 0 0.93604-0.76644 1.6949-1.6992 1.6949-0.95343 0-1.7025-0.75884-1.7025-1.6949m-10.57 19.115c-0.6349-0.0641-1.148-0.52727-1.4861-1.2057 0.45443-0.59685 1.0643-0.94039 1.6949-0.87407 0.63055 0.0772 1.1633 0.53488 1.4883 1.2035-0.4653 0.59902-1.073 0.91756-1.697 0.87625m-1.1806-3.0875c-0.24787-0.57185-0.84689-0.92843-1.6025-1.0284-0.41855 0.61642-0.55445 1.3068-0.29136 1.8808 0.25874 0.56749 0.83711 0.93278 1.5883 1.0295 0.42725-0.61859 0.56749-1.2915 0.30549-1.8819m7.5872 1.2252c-0.61642-0.19134-1.0176-0.73818-1.2089-1.4796 0.56967-0.47943 1.2491-0.68056 1.8416-0.5077 0.6012 0.21091 1.0165 0.7621 1.1872 1.497-0.56532 0.47509-1.2209 0.68491-1.8199 0.49031m-1.6992 0.37398c0.4653-0.43486 0.6262-1.1122 0.49031-1.8536-0.711-0.20438-1.409-0.12284-1.8721 0.29571-0.48052 0.4316-0.62403 1.1122-0.49031 1.8406 0.71317 0.21852 1.4013 0.12068 1.8721-0.28266m1.1741-3.6224c-0.1185-0.62511-0.61533-1.0937-1.3307-1.347-0.55445 0.51966-0.82189 1.1643-0.69469 1.7742 0.13589 0.61206 0.6436 1.0872 1.3502 1.3415 0.53923-0.51096 0.81319-1.1513 0.67512-1.7688m18.561 5.1107c0.63925-0.0641 1.1524-0.52727 1.4796-1.2057-0.45008-0.59685-1.0719-0.94039-1.7025-0.87407-0.62511 0.0772-1.1404 0.53488-1.459 1.2035 0.45878 0.59902 1.0676 0.91756 1.6818 0.87625m1.1698-3.0875c0.27831-0.57185 0.86429-0.92843 1.597-1.0284 0.43269 0.61642 0.56641 1.3068 0.30984 1.8808-0.26092 0.56749-0.86646 0.93278-1.597 1.0295-0.41856-0.61859-0.56858-1.2915-0.30984-1.8819m-7.5742 1.2252c0.61533-0.19134 1.0252-0.73818 1.2002-1.4796-0.56967-0.47943-1.2383-0.68056-1.8242-0.5077-0.6262 0.21091-1.0274 0.7621-1.2144 1.497 0.58598 0.47509 1.2481 0.68491 1.8384 0.49031m1.6927 0.37398c-0.47182-0.43486-0.62511-1.1122-0.49248-1.8536 0.72731-0.20438 1.4198-0.12284 1.883 0.29571 0.45878 0.4316 0.62185 1.1122 0.47726 1.8406-0.711 0.21852-1.3992 0.12068-1.8677-0.28266m-1.1698-3.6224c0.13589-0.62511 0.63816-1.0937 1.3568-1.347 0.52618 0.51966 0.78275 1.1643 0.6599 1.7742-0.13154 0.61206-0.63272 1.0872-1.3394 1.3415-0.53379-0.51096-0.82406-1.1513-0.6773-1.7688m-7.1285 2.7288c0.5501-0.30549 0.84037-0.95017 0.86429-1.6894-0.66099-0.36093-1.3568-0.42181-1.8916-0.10002-0.5501 0.31854-0.83928 0.94039-0.87081 1.6992 0.66643 0.3381 1.3546 0.41855 1.8982 0.0902m1.7286 0c-0.53923-0.30549-0.83493-0.95017-0.86429-1.6894 0.6599-0.36093 1.3415-0.42181 1.9047-0.10002 0.54575 0.31854 0.83385 0.94039 0.86429 1.6992-0.66751 0.3381-1.3633 0.41855-1.9047 0.0902m-1.9025-3.2789c0-0.63924 0.40333-1.197 1.0382-1.5959 0.6349 0.39899 1.0469 0.9567 1.0469 1.5959 0 0.62512-0.41203 1.1785-1.0469 1.5894-0.6349-0.41094-1.0382-0.9643-1.0382-1.5894" fill="currentColor" stroke-width="1.0872"/>
</svg>
